# xmcd
#
# Track frame offsets: 
#        150
#        20805
#        39107
#        57470
#        72605
#        90727
#        109075
#        128250
#        148670
#        166752
#        185040
#        202310
#
# Disc length: 2883 seconds
#
# Revision: 13
# Processed by: cddbd v1.5.2PL0 Copyright (c) Steve Scherf et al.
# Submitted via: ExactAudioCopy v1.0b6
#
DISCID=af0b410c
DTITLE=Europe - Out Of This World 2004 DSD Mastering MHCP-434
DYEAR=1988
DGENRE=Hard Rock
TTITLE0=Superstitious 
TTITLE1=Let The Good Times Rock 
TTITLE2=Open Your Heart 
TTITLE3=More Than Meets The Eye 
TTITLE4=Coast To Coast 
TTITLE5=Ready Or Not 
TTITLE6=Sign Of The Times 
TTITLE7=Just The Beginning 
TTITLE8=Never Say Die 
TTITLE9=Lights And Shadows 
TTITLE10=Tower's Callin' 
TTITLE11=Tomorrow 
EXTD=YEAR: 1988
EXTT0=
EXTT1=
EXTT2=
EXTT3=
EXTT4=
EXTT5=
EXTT6=
EXTT7=
EXTT8=
EXTT9=
EXTT10=
EXTT11=
PLAYORDER=
